<?xml version="1.0" standalone="no"?>
<!DOCTYPE svg PUBLIC "-//W3C//DTD SVG 20010904//EN"
 "http://www.w3.org/TR/2001/REC-SVG-20010904/DTD/svg10.dtd">
<svg version="1.0" xmlns="http://www.w3.org/2000/svg"
 width="400.000000pt" height="400.000000pt" viewBox="0 0 400.000000 400.000000"
 preserveAspectRatio="xMidYMid meet">

<g transform="translate(0.000000,400.000000) scale(0.100000,-0.100000)"
fill="#000000" stroke="none">
<path d="M2468 3514 c-51 -33 -71 -67 -71 -119 0 -51 21 -88 66 -115 31 -19
55 -20 598 -20 l566 0 34 23 c20 14 41 40 52 68 19 45 19 46 -1 92 -14 31 -33
54 -61 71 l-41 26 -552 -1 -553 0 -37 -25z m72 -119 c0 -87 -3 -105 -15 -105
-12 0 -15 18 -15 105 0 87 3 105 15 105 12 0 15 -18 15 -105z m60 0 c0 -87 -3
-105 -15 -105 -12 0 -15 18 -15 105 0 87 3 105 15 105 12 0 15 -18 15 -105z
m58 -4 c2 -94 1 -102 -15 -99 -16 3 -18 16 -20 92 -1 95 3 119 21 113 7 -2 12
-41 14 -106z m57 3 c0 -81 -3 -99 -15 -99 -12 0 -16 18 -18 89 -3 97 1 120 21
113 8 -2 12 -32 12 -103z m830 1 c0 -13 -8 -21 -22 -23 -17 -3 -23 2 -23 16 0
10 3 22 7 26 13 13 38 1 38 -19z m68 13 c7 -21 -4 -38 -23 -38 -23 0 -34 16
-26 35 7 18 43 20 49 3z m62 -13 c0 -13 -8 -21 -22 -23 -17 -3 -23 2 -23 16 0
10 3 22 7 26 13 13 38 1 38 -19z"/>
<path d="M2465 3202 c-39 -24 -54 -43 -65 -83 -13 -45 3 -98 40 -134 l31 -30
578 -3 577 -2 34 23 c21 14 42 40 54 69 l19 46 -24 49 c-43 87 -13 83 -654 83
-526 0 -562 -1 -590 -18z m75 -117 c0 -87 -3 -105 -15 -105 -12 0 -15 18 -15
105 0 87 3 105 15 105 12 0 15 -18 15 -105z m60 0 c0 -87 -3 -105 -15 -105
-12 0 -15 18 -15 105 0 87 3 105 15 105 12 0 15 -18 15 -105z m58 -4 c2 -94 1
-102 -15 -99 -15 3 -19 16 -21 82 -4 89 3 129 21 123 8 -2 13 -37 15 -106z
m57 3 c0 -81 -3 -99 -15 -99 -12 0 -16 18 -18 89 -3 97 1 120 21 113 8 -2 12
-32 12 -103z m833 3 c4 -20 -25 -34 -40 -19 -15 15 -1 44 19 40 10 -2 19 -11
21 -21z m65 11 c7 -21 -4 -38 -23 -38 -23 0 -34 16 -26 35 7 18 43 20 49 3z
m63 -3 c8 -20 -13 -45 -32 -38 -14 5 -19 34 -7 46 11 12 33 7 39 -8z"/>
<path d="M2474 2896 c-90 -39 -105 -158 -28 -225 l35 -31 572 0 c549 0 573 1
604 20 44 26 66 63 66 110 0 50 -29 98 -73 121 -33 18 -67 19 -590 19 -443 -1
-561 -3 -586 -14z m66 -121 c0 -87 -3 -105 -15 -105 -12 0 -15 18 -15 105 0
87 3 105 15 105 12 0 15 -18 15 -105z m58 -3 c2 -86 0 -102 -13 -102 -12 0
-15 17 -15 106 0 80 3 105 13 102 8 -3 13 -36 15 -106z m60 -1 c2 -94 1 -102
-15 -99 -15 3 -19 16 -21 82 -4 89 3 129 21 123 8 -2 13 -37 15 -106z m57 3
c0 -81 -3 -99 -15 -99 -12 0 -16 18 -18 89 -3 97 1 120 21 113 8 -2 12 -32 12
-103z m832 10 c3 -8 -1 -22 -9 -30 -13 -14 -17 -14 -32 1 -13 13 -14 20 -5 31
15 19 38 18 46 -2z m66 2 c3 -8 -1 -22 -8 -33 -13 -17 -15 -17 -31 -1 -9 9
-14 24 -11 32 8 20 43 21 50 2z m63 -1 c8 -20 -13 -45 -32 -38 -14 5 -19 34
-7 46 11 12 33 7 39 -8z"/>
<path d="M973 2801 c-34 -3 -66 -10 -72 -16 -15 -15 -121 -187 -121 -196 0 -4
42 14 93 41 118 62 247 112 367 141 93 23 94 24 55 31 -47 8 -232 8 -322 -1z"/>
<path d="M2474 2586 c-90 -39 -105 -158 -28 -225 l35 -31 584 2 584 3 30 29
c53 50 58 115 16 179 -37 57 -33 57 -637 57 -442 -1 -559 -3 -584 -14z m66
-121 c0 -87 -3 -105 -15 -105 -12 0 -15 18 -15 105 0 87 3 105 15 105 12 0 15
-18 15 -105z m58 -3 c2 -86 0 -102 -13 -102 -12 0 -15 17 -15 106 0 80 3 105
13 102 8 -3 13 -36 15 -106z m60 -1 c2 -94 1 -102 -15 -99 -15 3 -19 16 -21
82 -4 89 3 129 21 123 8 -2 13 -37 15 -106z m60 0 c2 -94 1 -102 -15 -99 -15
3 -18 16 -21 93 -2 98 1 119 21 113 8 -3 13 -36 15 -107z m829 13 c3 -8 -1
-22 -9 -30 -13 -14 -17 -14 -32 1 -13 13 -14 20 -5 31 15 19 38 18 46 -2z m62
3 c8 -10 7 -19 -4 -33 -13 -18 -15 -18 -31 -2 -18 18 -13 48 9 48 8 0 20 -6
26 -13z m67 -2 c8 -20 -13 -45 -32 -38 -14 5 -19 34 -7 46 11 12 33 7 39 -8z"/>
<path d="M1425 2236 c-217 -71 -359 -192 -455 -391 -68 -141 -110 -331 -110
-502 0 -60 1 -63 58 -135 123 -154 289 -291 452 -373 87 -44 247 -101 256 -92
3 2 -10 14 -29 26 -47 29 -175 164 -224 237 -92 136 -158 299 -187 470 -20
113 -20 309 -1 391 36 154 136 285 270 356 80 42 71 46 -30 13z"/>
<path d="M1459 1629 c-65 -10 -149 -55 -149 -81 0 -17 76 -91 133 -130 56 -38
153 -87 205 -103 l23 -7 -20 33 c-33 53 -36 109 -11 165 11 27 30 58 41 70
l20 21 -63 16 c-84 21 -124 25 -179 16z"/>
</g>
</svg>
